<svg id="el_6nXQHakYvaJ" data-name="Layer 1" xmlns="http://www.w3.org/2000/svg" viewBox="0 0 519 190"><style>@-webkit-keyframes el_Tpg1sv5FgGX_D5u0W7XkZ_Animation{72.67%{-webkit-transform: rotate(0deg);transform: rotate(0deg);}73.33%{-webkit-transform: rotate(-20deg);transform: rotate(-20deg);}0%{-webkit-transform: rotate(0deg);transform: rotate(0deg);}100%{-webkit-transform: rotate(-20deg);transform: rotate(-20deg);}}@keyframes el_Tpg1sv5FgGX_D5u0W7XkZ_Animation{72.67%{-webkit-transform: rotate(0deg);transform: rotate(0deg);}73.33%{-webkit-transform: rotate(-20deg);transform: rotate(-20deg);}0%{-webkit-transform: rotate(0deg);transform: rotate(0deg);}100%{-webkit-transform: rotate(-20deg);transform: rotate(-20deg);}}@-webkit-keyframes el_Tpg1sv5FgGX_Animation{72.67%{opacity: 0;}73.33%{opacity: 1;}0%{opacity: 0;}100%{opacity: 1;}}@keyframes el_Tpg1sv5FgGX_Animation{72.67%{opacity: 0;}73.33%{opacity: 1;}0%{opacity: 0;}100%{opacity: 1;}}@-webkit-keyframes el_Tpg1sv5FgGX_o54B8JqZI_Animation{73.33%{-webkit-transform: translate(0px, 0px);transform: translate(0px, 0px);}100%{-webkit-transform: translate(19px, -23px);transform: translate(19px, -23px);}0%{-webkit-transform: translate(0px, 0px);transform: translate(0px, 0px);}}@keyframes el_Tpg1sv5FgGX_o54B8JqZI_Animation{73.33%{-webkit-transform: translate(0px, 0px);transform: translate(0px, 0px);}100%{-webkit-transform: translate(19px, -23px);transform: translate(19px, -23px);}0%{-webkit-transform: translate(0px, 0px);transform: translate(0px, 0px);}}@-webkit-keyframes el_3Amc0o6NINf_Animation{46.67%{opacity: 0;}47.11%{opacity: 1;}72.67%{opacity: 1;}73.33%{opacity: 0;}0%{opacity: 0;}100%{opacity: 0;}}@keyframes el_3Amc0o6NINf_Animation{46.67%{opacity: 0;}47.11%{opacity: 1;}72.67%{opacity: 1;}73.33%{opacity: 0;}0%{opacity: 0;}100%{opacity: 0;}}@-webkit-keyframes el_3Amc0o6NINf_REhV3eju__Animation{46.67%{-webkit-transform: translate(-74px, 0px);transform: translate(-74px, 0px);}73.33%{-webkit-transform: translate(-197px, -12px);transform: translate(-197px, -12px);}0%{-webkit-transform: translate(-74px, 0px);transform: translate(-74px, 0px);}100%{-webkit-transform: translate(-197px, -12px);transform: translate(-197px, -12px);}}@keyframes el_3Amc0o6NINf_REhV3eju__Animation{46.67%{-webkit-transform: translate(-74px, 0px);transform: translate(-74px, 0px);}73.33%{-webkit-transform: translate(-197px, -12px);transform: translate(-197px, -12px);}0%{-webkit-transform: translate(-74px, 0px);transform: translate(-74px, 0px);}100%{-webkit-transform: translate(-197px, -12px);transform: translate(-197px, -12px);}}@-webkit-keyframes el_RoAqjohqKKH_Animation{0%{opacity: 0;}46.67%{opacity: 0;}100%{opacity: 0;}}@keyframes el_RoAqjohqKKH_Animation{0%{opacity: 0;}46.67%{opacity: 0;}100%{opacity: 0;}}@-webkit-keyframes el_VpJJXKxdxWS_0NFCmr4l-_Animation{0%{-webkit-transform: translate(0px, 0px);transform: translate(0px, 0px);}13.33%{-webkit-transform: translate(0px, 0px);transform: translate(0px, 0px);}46.67%{-webkit-transform: translate(51px, 52px);transform: translate(51px, 52px);}100%{-webkit-transform: translate(51px, 52px);transform: translate(51px, 52px);}}@keyframes el_VpJJXKxdxWS_0NFCmr4l-_Animation{0%{-webkit-transform: translate(0px, 0px);transform: translate(0px, 0px);}13.33%{-webkit-transform: translate(0px, 0px);transform: translate(0px, 0px);}46.67%{-webkit-transform: translate(51px, 52px);transform: translate(51px, 52px);}100%{-webkit-transform: translate(51px, 52px);transform: translate(51px, 52px);}}@-webkit-keyframes el_Ds674bv0C5Y_Animation{12.89%{opacity: 1;}13.33%{opacity: 0;}0%{opacity: 1;}100%{opacity: 0;}}@keyframes el_Ds674bv0C5Y_Animation{12.89%{opacity: 1;}13.33%{opacity: 0;}0%{opacity: 1;}100%{opacity: 0;}}@-webkit-keyframes el_VpJJXKxdxWS_70lWf60x1_Animation{13.33%{-webkit-transform: rotate(65deg);transform: rotate(65deg);}46.67%{-webkit-transform: rotate(25deg);transform: rotate(25deg);}0%{-webkit-transform: rotate(65deg);transform: rotate(65deg);}100%{-webkit-transform: rotate(25deg);transform: rotate(25deg);}}@keyframes el_VpJJXKxdxWS_70lWf60x1_Animation{13.33%{-webkit-transform: rotate(65deg);transform: rotate(65deg);}46.67%{-webkit-transform: rotate(25deg);transform: rotate(25deg);}0%{-webkit-transform: rotate(65deg);transform: rotate(65deg);}100%{-webkit-transform: rotate(25deg);transform: rotate(25deg);}}@-webkit-keyframes el_VpJJXKxdxWS_Animation{12.89%{opacity: 0;}13.33%{opacity: 1;}46.67%{opacity: 1;}47.11%{opacity: 0;}0%{opacity: 0;}100%{opacity: 0;}}@keyframes el_VpJJXKxdxWS_Animation{12.89%{opacity: 0;}13.33%{opacity: 1;}46.67%{opacity: 1;}47.11%{opacity: 0;}0%{opacity: 0;}100%{opacity: 0;}}@-webkit-keyframes el_Ds674bv0C5Y_Rtvp6gHBL_Animation{0%{-webkit-transform: translate(0px, 0px);transform: translate(0px, 0px);}13.33%{-webkit-transform: translate(55px, -15px);transform: translate(55px, -15px);}100%{-webkit-transform: translate(55px, -15px);transform: translate(55px, -15px);}}@keyframes el_Ds674bv0C5Y_Rtvp6gHBL_Animation{0%{-webkit-transform: translate(0px, 0px);transform: translate(0px, 0px);}13.33%{-webkit-transform: translate(55px, -15px);transform: translate(55px, -15px);}100%{-webkit-transform: translate(55px, -15px);transform: translate(55px, -15px);}}@-webkit-keyframes el_Ds674bv0C5Y_rzQo1nDYJ_Animation{0%{-webkit-transform: rotate(0deg);transform: rotate(0deg);}13.33%{-webkit-transform: rotate(-35deg);transform: rotate(-35deg);}100%{-webkit-transform: rotate(-35deg);transform: rotate(-35deg);}}@keyframes el_Ds674bv0C5Y_rzQo1nDYJ_Animation{0%{-webkit-transform: rotate(0deg);transform: rotate(0deg);}13.33%{-webkit-transform: rotate(-35deg);transform: rotate(-35deg);}100%{-webkit-transform: rotate(-35deg);transform: rotate(-35deg);}}@-webkit-keyframes el_IOc4tykvFzd_AMg0ogxyK_Animation{53.33%{-webkit-transform: translate(0px, 0px);transform: translate(0px, 0px);}100%{-webkit-transform: translate(-155px, 0px);transform: translate(-155px, 0px);}0%{-webkit-transform: translate(0px, 0px);transform: translate(0px, 0px);}}@keyframes el_IOc4tykvFzd_AMg0ogxyK_Animation{53.33%{-webkit-transform: translate(0px, 0px);transform: translate(0px, 0px);}100%{-webkit-transform: translate(-155px, 0px);transform: translate(-155px, 0px);}0%{-webkit-transform: translate(0px, 0px);transform: translate(0px, 0px);}}@-webkit-keyframes el_IOc4tykvFzd_Animation{53.33%{opacity: 0;}54%{opacity: 1;}0%{opacity: 0;}100%{opacity: 1;}}@keyframes el_IOc4tykvFzd_Animation{53.33%{opacity: 0;}54%{opacity: 1;}0%{opacity: 0;}100%{opacity: 1;}}@-webkit-keyframes el_wpqWlPiYTaX_Animation{53.33%{opacity: 1;}54%{opacity: 0;}0%{opacity: 1;}100%{opacity: 0;}}@keyframes el_wpqWlPiYTaX_Animation{53.33%{opacity: 1;}54%{opacity: 0;}0%{opacity: 1;}100%{opacity: 0;}}@-webkit-keyframes el_wpqWlPiYTaX_AvOxuTSSv_Animation{0%{-webkit-transform: translate(0px, 0px);transform: translate(0px, 0px);}53.33%{-webkit-transform: translate(155px, 0px);transform: translate(155px, 0px);}100%{-webkit-transform: translate(155px, 0px);transform: translate(155px, 0px);}}@keyframes el_wpqWlPiYTaX_AvOxuTSSv_Animation{0%{-webkit-transform: translate(0px, 0px);transform: translate(0px, 0px);}53.33%{-webkit-transform: translate(155px, 0px);transform: translate(155px, 0px);}100%{-webkit-transform: translate(155px, 0px);transform: translate(155px, 0px);}}@-webkit-keyframes el_1XdqTpWZEEG_eWtFdhaC2_Animation{50.67%{-webkit-transform: translate(0px, 0px);transform: translate(0px, 0px);}100%{-webkit-transform: translate(130px, 34px);transform: translate(130px, 34px);}0%{-webkit-transform: translate(0px, 0px);transform: translate(0px, 0px);}}@keyframes el_1XdqTpWZEEG_eWtFdhaC2_Animation{50.67%{-webkit-transform: translate(0px, 0px);transform: translate(0px, 0px);}100%{-webkit-transform: translate(130px, 34px);transform: translate(130px, 34px);}0%{-webkit-transform: translate(0px, 0px);transform: translate(0px, 0px);}}@-webkit-keyframes el_1XdqTpWZEEG_Animation{50%{opacity: 0;}50.67%{opacity: 1;}99.33%{opacity: 1;}100%{opacity: 0;}0%{opacity: 0;}}@keyframes el_1XdqTpWZEEG_Animation{50%{opacity: 0;}50.67%{opacity: 1;}99.33%{opacity: 1;}100%{opacity: 0;}0%{opacity: 0;}}@-webkit-keyframes el_0rDwWcGFAeN_wG-Yl2WZm_Animation{13.33%{-webkit-transform: rotate(0deg);transform: rotate(0deg);}14.00%{-webkit-transform: rotate(30deg);transform: rotate(30deg);}0%{-webkit-transform: rotate(0deg);transform: rotate(0deg);}}@keyframes el_0rDwWcGFAeN_wG-Yl2WZm_Animation{13.33%{-webkit-transform: rotate(0deg);transform: rotate(0deg);}14.00%{-webkit-transform: rotate(30deg);transform: rotate(30deg);}0%{-webkit-transform: rotate(0deg);transform: rotate(0deg);}}@-webkit-keyframes el_0rDwWcGFAeN_e9L48_K3C_Animation{14.00%{-webkit-transform: translate(0px, 0px);transform: translate(0px, 0px);}50.67%{-webkit-transform: translate(-110px, -53px);transform: translate(-110px, -53px);}100%{-webkit-transform: translate(-110px, -53px);transform: translate(-110px, -53px);}}@keyframes el_0rDwWcGFAeN_e9L48_K3C_Animation{14.00%{-webkit-transform: translate(0px, 0px);transform: translate(0px, 0px);}50.67%{-webkit-transform: translate(-110px, -53px);transform: translate(-110px, -53px);}100%{-webkit-transform: translate(-110px, -53px);transform: translate(-110px, -53px);}}@-webkit-keyframes el_0rDwWcGFAeN_Animation{13.33%{opacity: 0;}14.00%{opacity: 1;}50%{opacity: 1;}50.67%{opacity: 0;}0%{opacity: 0;}100%{opacity: 0;}}@keyframes el_0rDwWcGFAeN_Animation{13.33%{opacity: 0;}14.00%{opacity: 1;}50%{opacity: 1;}50.67%{opacity: 0;}0%{opacity: 0;}100%{opacity: 0;}}@-webkit-keyframes el_oysShe3CLh2_Animation{13.33%{opacity: 1;}14.00%{opacity: 0;}99.56%{opacity: 0;}100%{opacity: 1;}0%{opacity: 1;}}@keyframes el_oysShe3CLh2_Animation{13.33%{opacity: 1;}14.00%{opacity: 0;}99.56%{opacity: 0;}100%{opacity: 1;}0%{opacity: 1;}}@-webkit-keyframes el_oysShe3CLh2_nSQsBqlwR_Animation{0%{-webkit-transform: translate(0px, 0px);transform: translate(0px, 0px);}13.33%{-webkit-transform: translate(-20px, 18px);transform: translate(-20px, 18px);}100%{-webkit-transform: translate(0px, 0px);transform: translate(0px, 0px);}}@keyframes el_oysShe3CLh2_nSQsBqlwR_Animation{0%{-webkit-transform: translate(0px, 0px);transform: translate(0px, 0px);}13.33%{-webkit-transform: translate(-20px, 18px);transform: translate(-20px, 18px);}100%{-webkit-transform: translate(0px, 0px);transform: translate(0px, 0px);}}@-webkit-keyframes el_mF5kx4c9lWI_jH9HMAgX__Animation{0%{-webkit-transform: translate(0px, -2px);transform: translate(0px, -2px);}6.67%{-webkit-transform: translate(0px, 0px);transform: translate(0px, 0px);}13.33%{-webkit-transform: translate(0px, -2px);transform: translate(0px, -2px);}20%{-webkit-transform: translate(0px, 0px);transform: translate(0px, 0px);}26.67%{-webkit-transform: translate(0px, -2px);transform: translate(0px, -2px);}33.33%{-webkit-transform: translate(0px, 0px);transform: translate(0px, 0px);}40.44%{-webkit-transform: translate(0px, -2px);transform: translate(0px, -2px);}46.67%{-webkit-transform: translate(0px, 0px);transform: translate(0px, 0px);}53.33%{-webkit-transform: translate(0px, -2px);transform: translate(0px, -2px);}60.44%{-webkit-transform: translate(0px, 0px);transform: translate(0px, 0px);}66.44%{-webkit-transform: translate(0px, -2px);transform: translate(0px, -2px);}73.11%{-webkit-transform: translate(0px, 0px);transform: translate(0px, 0px);}80%{-webkit-transform: translate(0px, -2px);transform: translate(0px, -2px);}86.67%{-webkit-transform: translate(0px, 0px);transform: translate(0px, 0px);}93.33%{-webkit-transform: translate(0px, -2px);transform: translate(0px, -2px);}100%{-webkit-transform: translate(0px, 0px);transform: translate(0px, 0px);}}@keyframes el_mF5kx4c9lWI_jH9HMAgX__Animation{0%{-webkit-transform: translate(0px, -2px);transform: translate(0px, -2px);}6.67%{-webkit-transform: translate(0px, 0px);transform: translate(0px, 0px);}13.33%{-webkit-transform: translate(0px, -2px);transform: translate(0px, -2px);}20%{-webkit-transform: translate(0px, 0px);transform: translate(0px, 0px);}26.67%{-webkit-transform: translate(0px, -2px);transform: translate(0px, -2px);}33.33%{-webkit-transform: translate(0px, 0px);transform: translate(0px, 0px);}40.44%{-webkit-transform: translate(0px, -2px);transform: translate(0px, -2px);}46.67%{-webkit-transform: translate(0px, 0px);transform: translate(0px, 0px);}53.33%{-webkit-transform: translate(0px, -2px);transform: translate(0px, -2px);}60.44%{-webkit-transform: translate(0px, 0px);transform: translate(0px, 0px);}66.44%{-webkit-transform: translate(0px, -2px);transform: translate(0px, -2px);}73.11%{-webkit-transform: translate(0px, 0px);transform: translate(0px, 0px);}80%{-webkit-transform: translate(0px, -2px);transform: translate(0px, -2px);}86.67%{-webkit-transform: translate(0px, 0px);transform: translate(0px, 0px);}93.33%{-webkit-transform: translate(0px, -2px);transform: translate(0px, -2px);}100%{-webkit-transform: translate(0px, 0px);transform: translate(0px, 0px);}}@-webkit-keyframes el_RMGzebJYz1h_mb3pyWxNO_Animation{50%{-webkit-transform: translate(0px, 0px);transform: translate(0px, 0px);}100%{-webkit-transform: translate(55px, -15px);transform: translate(55px, -15px);}0%{-webkit-transform: translate(0px, 0px);transform: translate(0px, 0px);}}@keyframes el_RMGzebJYz1h_mb3pyWxNO_Animation{50%{-webkit-transform: translate(0px, 0px);transform: translate(0px, 0px);}100%{-webkit-transform: translate(55px, -15px);transform: translate(55px, -15px);}0%{-webkit-transform: translate(0px, 0px);transform: translate(0px, 0px);}}@-webkit-keyframes el_RMGzebJYz1h_Animation{50%{opacity: 0;}50.67%{opacity: 1;}99.56%{opacity: 1;}100%{opacity: 0;}0%{opacity: 0;}}@keyframes el_RMGzebJYz1h_Animation{50%{opacity: 0;}50.67%{opacity: 1;}99.56%{opacity: 1;}100%{opacity: 0;}0%{opacity: 0;}}@-webkit-keyframes el_D4YWQ4Y2jXr_Animation{0%{opacity: 0;}0.22%{opacity: 1;}50%{opacity: 1;}50.67%{opacity: 0;}100%{opacity: 0;}}@keyframes el_D4YWQ4Y2jXr_Animation{0%{opacity: 0;}0.22%{opacity: 1;}50%{opacity: 1;}50.67%{opacity: 0;}100%{opacity: 0;}}@-webkit-keyframes el_D4YWQ4Y2jXr_furcbGADZ_Animation{0%{-webkit-transform: translate(0px, 0px);transform: translate(0px, 0px);}50%{-webkit-transform: translate(-55px, 15px);transform: translate(-55px, 15px);}100%{-webkit-transform: translate(-55px, 15px);transform: translate(-55px, 15px);}}@keyframes el_D4YWQ4Y2jXr_furcbGADZ_Animation{0%{-webkit-transform: translate(0px, 0px);transform: translate(0px, 0px);}50%{-webkit-transform: translate(-55px, 15px);transform: translate(-55px, 15px);}100%{-webkit-transform: translate(-55px, 15px);transform: translate(-55px, 15px);}}@-webkit-keyframes el_UTv2CU1YUGt_GkylYqNdz_Animation{50%{-webkit-transform: translate(0px, 0px);transform: translate(0px, 0px);}100%{-webkit-transform: translate(60px, 30px);transform: translate(60px, 30px);}0%{-webkit-transform: translate(0px, 0px);transform: translate(0px, 0px);}}@keyframes el_UTv2CU1YUGt_GkylYqNdz_Animation{50%{-webkit-transform: translate(0px, 0px);transform: translate(0px, 0px);}100%{-webkit-transform: translate(60px, 30px);transform: translate(60px, 30px);}0%{-webkit-transform: translate(0px, 0px);transform: translate(0px, 0px);}}@-webkit-keyframes el_UTv2CU1YUGt_Animation{49.56%{opacity: 0;}50%{opacity: 1;}0%{opacity: 0;}100%{opacity: 1;}}@keyframes el_UTv2CU1YUGt_Animation{49.56%{opacity: 0;}50%{opacity: 1;}0%{opacity: 0;}100%{opacity: 1;}}@-webkit-keyframes el_9O8KDNqEazR_Animation{49.56%{opacity: 1;}50%{opacity: 0;}0%{opacity: 1;}100%{opacity: 0;}}@keyframes el_9O8KDNqEazR_Animation{49.56%{opacity: 1;}50%{opacity: 0;}0%{opacity: 1;}100%{opacity: 0;}}@-webkit-keyframes el_9O8KDNqEazR_gErMoQAL0_Animation{0%{-webkit-transform: translate(0px, 0px);transform: translate(0px, 0px);}50%{-webkit-transform: translate(-60px, -30px);transform: translate(-60px, -30px);}100%{-webkit-transform: translate(-60px, -30px);transform: translate(-60px, -30px);}}@keyframes el_9O8KDNqEazR_gErMoQAL0_Animation{0%{-webkit-transform: translate(0px, 0px);transform: translate(0px, 0px);}50%{-webkit-transform: translate(-60px, -30px);transform: translate(-60px, -30px);}100%{-webkit-transform: translate(-60px, -30px);transform: translate(-60px, -30px);}}#el_6nXQHakYvaJ *{-webkit-animation-duration: 15s;animation-duration: 15s;-webkit-animation-iteration-count: infinite;animation-iteration-count: infinite;-webkit-animation-timing-function: cubic-bezier(0, 0, 1, 1);animation-timing-function: cubic-bezier(0, 0, 1, 1);}#el_CLpwBFEp8ok{fill: #60ceff;}#el_5N0VTN82Gzr{fill: #fff;}#el_kXdolWxyNkb{fill: #ffe79b;}#el_GxG0hFLkUv2{fill: #e6c868;}#el_teLugS5I9Zl{fill: #fff2c9;}#el_95edKge0IDo{fill: #fff2c9;}#el_wnZX5OHyeUU{fill: #ffe48d;}#el_GtMT_kPnvXa{fill: #ffe48d;}#el_7yQ5jK5cOux{fill: #ffd0be;}#el_PSNtotJZ4Yr{fill: #ffd0be;}#el_99CroKWg-9_{fill: #ffd0be;}#el_sjYh0c3-hbe{fill: #00abfb;}#el_rH4X7qREZwu{fill: #ffd0be;}#el_9cBL4eBWawx{fill: #ffd0be;}#el_EAcJgrK_n7L{fill: #ffd0be;}#el_dNcJAov4Wxm{fill: #00608c;}#el_RaG8F7K_r4k{fill: #ffd0be;}#el_QPn35WpI0up{fill: #282320;}#el_rTALguFTwsm{fill: #fff;}#el_6CYBv1dQIRM{fill: #fff;}#el_lf7dIUSIXYt{-webkit-transform: translate(27.66px, 115.96px) rotate(-45deg);transform: translate(27.66px, 115.96px) rotate(-45deg);fill: #fff;}#el_TKIOkZrRo7a{fill: #fff;}#el_3LdH5Mw6Kut{fill: #ffe79b;}#el_3CVpLDv_h_3{fill: #e6c868;}#el_p0TZ0gimG2V{fill: #00d2ff;}#el_6YaOSoVj6lA{fill: #fff;}#el_Mvs5EjEM0La{fill: #fff;}#el_Hysbwpxndwl{fill: #003e5c;}#el_KgdN1lLZGzo{fill: #282320;}#el_-RLs1QwXXKm{fill: #006486;}#el_GRzYEk-V-8x{fill: #006486;}#el_ij7iGc_CBeC{fill: #00608c;}#el_2IFch_2Rb1_{fill: #ffe2da;}#el_cLVESHlRDot{fill: #00608c;}#el_xNlQaG_Sur8{fill: #282320;}#el_mpwu8ntWteK{fill: #fff;}#el_Cgwcfhac3Qj{fill: #282320;}#el_EmEikUA1bPq{fill: #282320;}#el_wfxIdcZJUbZ{fill: #fff;}#el_n29Hgi44SGB{fill: #fff;}#el_3X4USg75RAr{fill: #00d2ff;}#el_wq4jCLmGfj7{fill: #00d2ff;}#el_qHh6MOeUpW1{fill: #fff;}#el_Ij5_yYsqVO1{fill: #fff;}#el_7ULw28OfGee{fill: #006486;}#el_OmvCsoSXUdu{fill: #00d2ff;}#el_3NQBTHsTMA_{fill: #006486;}#el_oAG_N_dxLM9{fill: #006486;}#el_zkAoZDNMY4b{fill: #006486;}#el_hXPM8wBcwSA{fill: #006486;}#el_-I0ekgIiNrY{fill: #006486;opacity: 0.20000000298023224;isolation: isolate;}#el_chutuYvurDJ{fill: #006486;opacity: 0.20000000298023224;isolation: isolate;}#el_9swQpBinrEo{fill: #03a9f5;opacity: 0.800000011920929;isolation: isolate;}#el_qtv4N4QNTq2{fill: #003d59;}#el_iTPUFqguY8-{fill: #029adf;}#el_cIDbyoSXhPa{fill: #fff;}#el_uOAF-bMwrhH{fill: #fff;}#el_2mQo1O2R-ev{fill: #fff;}#el_oNG7kgJYr7J{fill: #ed4b7b;}#el_apRE7uHpRAr{fill: #ffa8c2;}#el_x4BWxvyOvPa{fill: #ed4b7b;}#el_kZuVf6mIbkg{fill: #f9739a;}#el_9O8KDNqEazR{fill: #79d5ff;-webkit-animation-name: el_9O8KDNqEazR_Animation;animation-name: el_9O8KDNqEazR_Animation;}#el_UTv2CU1YUGt{fill: #79d5ff;opacity: 0;-webkit-animation-name: el_UTv2CU1YUGt_Animation;animation-name: el_UTv2CU1YUGt_Animation;}#el_D4YWQ4Y2jXr{fill: #79d5ff;-webkit-animation-name: el_D4YWQ4Y2jXr_Animation;animation-name: el_D4YWQ4Y2jXr_Animation;}#el_RMGzebJYz1h{fill: #79d5ff;opacity: 0;-webkit-animation-name: el_RMGzebJYz1h_Animation;animation-name: el_RMGzebJYz1h_Animation;}#el_mF5kx4c9lWI{fill: #79d5ff;}#el_oysShe3CLh2{fill: #79d5ff;-webkit-animation-name: el_oysShe3CLh2_Animation;animation-name: el_oysShe3CLh2_Animation;}#el_0rDwWcGFAeN{fill: #79d5ff;opacity: 0;-webkit-animation-name: el_0rDwWcGFAeN_Animation;animation-name: el_0rDwWcGFAeN_Animation;}#el_1XdqTpWZEEG{fill: #79d5ff;opacity: 0;-webkit-animation-name: el_1XdqTpWZEEG_Animation;animation-name: el_1XdqTpWZEEG_Animation;}#el_Ds674bv0C5Y{fill: #79d5ff;-webkit-animation-name: el_Ds674bv0C5Y_Animation;animation-name: el_Ds674bv0C5Y_Animation;}#el_VpJJXKxdxWS{fill: #79d5ff;-webkit-animation-name: el_VpJJXKxdxWS_Animation;animation-name: el_VpJJXKxdxWS_Animation;}#el_RoAqjohqKKH{fill: #79d5ff;-webkit-animation-name: el_RoAqjohqKKH_Animation;animation-name: el_RoAqjohqKKH_Animation;}#el_3Amc0o6NINf{fill: #79d5ff;-webkit-animation-name: el_3Amc0o6NINf_Animation;animation-name: el_3Amc0o6NINf_Animation;}#el_Tpg1sv5FgGX{fill: #79d5ff;-webkit-animation-name: el_Tpg1sv5FgGX_Animation;animation-name: el_Tpg1sv5FgGX_Animation;}#el_wpqWlPiYTaX{fill: #79d5ff;-webkit-animation-name: el_wpqWlPiYTaX_Animation;animation-name: el_wpqWlPiYTaX_Animation;}#el_IOc4tykvFzd{fill: #79d5ff;opacity: 0;-webkit-animation-name: el_IOc4tykvFzd_Animation;animation-name: el_IOc4tykvFzd_Animation;}#el_J-dm34xlnCK{fill: #fff;}#el_uogI_XGWhd9{fill: #c8baba;}#el_WtEMXuCrZWV{fill: #c8baba;}#el_9O8KDNqEazR_gErMoQAL0{-webkit-animation-name: el_9O8KDNqEazR_gErMoQAL0_Animation;animation-name: el_9O8KDNqEazR_gErMoQAL0_Animation;-webkit-transform-origin: 50% 50%;transform-origin: 50% 50%;transform-box: fill-box;}#el_UTv2CU1YUGt_GkylYqNdz{-webkit-animation-name: el_UTv2CU1YUGt_GkylYqNdz_Animation;animation-name: el_UTv2CU1YUGt_GkylYqNdz_Animation;-webkit-transform-origin: 50% 50%;transform-origin: 50% 50%;transform-box: fill-box;}#el_D4YWQ4Y2jXr_furcbGADZ{-webkit-animation-name: el_D4YWQ4Y2jXr_furcbGADZ_Animation;animation-name: el_D4YWQ4Y2jXr_furcbGADZ_Animation;-webkit-transform-origin: 50% 50%;transform-origin: 50% 50%;transform-box: fill-box;}#el_RMGzebJYz1h_mb3pyWxNO{-webkit-animation-name: el_RMGzebJYz1h_mb3pyWxNO_Animation;animation-name: el_RMGzebJYz1h_mb3pyWxNO_Animation;-webkit-transform-origin: 50% 50%;transform-origin: 50% 50%;transform-box: fill-box;}#el_mF5kx4c9lWI_jH9HMAgX_{-webkit-animation-name: el_mF5kx4c9lWI_jH9HMAgX__Animation;animation-name: el_mF5kx4c9lWI_jH9HMAgX__Animation;-webkit-transform-origin: 50% 50%;transform-origin: 50% 50%;transform-box: fill-box;}#el_oysShe3CLh2_nSQsBqlwR{-webkit-animation-name: el_oysShe3CLh2_nSQsBqlwR_Animation;animation-name: el_oysShe3CLh2_nSQsBqlwR_Animation;-webkit-transform-origin: 50% 50%;transform-origin: 50% 50%;transform-box: fill-box;}#el_0rDwWcGFAeN_e9L48_K3C{-webkit-animation-name: el_0rDwWcGFAeN_e9L48_K3C_Animation;animation-name: el_0rDwWcGFAeN_e9L48_K3C_Animation;-webkit-transform-origin: 50% 50%;transform-origin: 50% 50%;transform-box: fill-box;}#el_0rDwWcGFAeN_wG-Yl2WZm{-webkit-animation-name: el_0rDwWcGFAeN_wG-Yl2WZm_Animation;animation-name: el_0rDwWcGFAeN_wG-Yl2WZm_Animation;-webkit-transform-origin: 50% 50%;transform-origin: 50% 50%;transform-box: fill-box;}#el_1XdqTpWZEEG_eWtFdhaC2{-webkit-animation-name: el_1XdqTpWZEEG_eWtFdhaC2_Animation;animation-name: el_1XdqTpWZEEG_eWtFdhaC2_Animation;-webkit-transform-origin: 50% 50%;transform-origin: 50% 50%;transform-box: fill-box;}#el_Ds674bv0C5Y__7xAQcHa4{-webkit-transform-origin: 50% 50%;transform-origin: 50% 50%;transform-box: fill-box;}#el_VpJJXKxdxWS_nKu0sJPJs{-webkit-transform-origin: 50% 50%;transform-origin: 50% 50%;transform-box: fill-box;}#el_VpJJXKxdxWS_7-hkYzcj5{-webkit-transform-origin: 50% 50%;transform-origin: 50% 50%;transform-box: fill-box;}#el_RoAqjohqKKH_fW-UvGPme{-webkit-transform-origin: 50% 50%;transform-origin: 50% 50%;transform-box: fill-box;}#el_RoAqjohqKKH_ON3vOox90{-webkit-transform-origin: 50% 50%;transform-origin: 50% 50%;transform-box: fill-box;}#el_3Amc0o6NINf_C5R0OYnTT{-webkit-transform-origin: 50% 50%;transform-origin: 50% 50%;transform-box: fill-box;}#el_Tpg1sv5FgGX_6lRUJsJGL{-webkit-transform-origin: 50% 50%;transform-origin: 50% 50%;transform-box: fill-box;}#el_wpqWlPiYTaX_AvOxuTSSv{-webkit-animation-name: el_wpqWlPiYTaX_AvOxuTSSv_Animation;animation-name: el_wpqWlPiYTaX_AvOxuTSSv_Animation;-webkit-transform-origin: 50% 50%;transform-origin: 50% 50%;transform-box: fill-box;}#el_IOc4tykvFzd_AMg0ogxyK{-webkit-animation-name: el_IOc4tykvFzd_AMg0ogxyK_Animation;animation-name: el_IOc4tykvFzd_AMg0ogxyK_Animation;-webkit-transform-origin: 50% 50%;transform-origin: 50% 50%;transform-box: fill-box;}#el_Ds674bv0C5Y_rzQo1nDYJ{-webkit-animation-name: el_Ds674bv0C5Y_rzQo1nDYJ_Animation;animation-name: el_Ds674bv0C5Y_rzQo1nDYJ_Animation;-webkit-transform-origin: 50% 50%;transform-origin: 50% 50%;transform-box: fill-box;}#el_Ds674bv0C5Y_Rtvp6gHBL{-webkit-animation-name: el_Ds674bv0C5Y_Rtvp6gHBL_Animation;animation-name: el_Ds674bv0C5Y_Rtvp6gHBL_Animation;-webkit-transform-origin: 50% 50%;transform-origin: 50% 50%;transform-box: fill-box;}#el_VpJJXKxdxWS_70lWf60x1{-webkit-animation-name: el_VpJJXKxdxWS_70lWf60x1_Animation;animation-name: el_VpJJXKxdxWS_70lWf60x1_Animation;-webkit-transform-origin: 50% 50%;transform-origin: 50% 50%;transform-box: fill-box;}#el_VpJJXKxdxWS_0NFCmr4l-{-webkit-transform-origin: 50% 50%;transform-origin: 50% 50%;transform-box: fill-box;-webkit-animation-name: el_VpJJXKxdxWS_0NFCmr4l-_Animation;animation-name: el_VpJJXKxdxWS_0NFCmr4l-_Animation;}#el_3Amc0o6NINf_REhV3eju_{-webkit-animation-name: el_3Amc0o6NINf_REhV3eju__Animation;animation-name: el_3Amc0o6NINf_REhV3eju__Animation;-webkit-transform-origin: 50% 50%;transform-origin: 50% 50%;transform-box: fill-box;}#el_Tpg1sv5FgGX_o54B8JqZI{-webkit-animation-name: el_Tpg1sv5FgGX_o54B8JqZI_Animation;animation-name: el_Tpg1sv5FgGX_o54B8JqZI_Animation;-webkit-transform-origin: 50% 50%;transform-origin: 50% 50%;transform-box: fill-box;}#el_Tpg1sv5FgGX_D5u0W7XkZ{-webkit-animation-name: el_Tpg1sv5FgGX_D5u0W7XkZ_Animation;animation-name: el_Tpg1sv5FgGX_D5u0W7XkZ_Animation;-webkit-transform-origin: 50% 50%;transform-origin: 50% 50%;transform-box: fill-box;}</style><title>illustration2</title><path d="M53.38,164.37h414.8l51.4,25.7H2Z" id="el_CLpwBFEp8ok"/><path d="M202.44,19h14.9V33.87Z" id="el_5N0VTN82Gzr"/><path d="M209.63,54.63h95.61a5.16,5.16,0,0,1,5.14,5.14V165.66H204.49V59.77A5.16,5.16,0,0,1,209.63,54.63Z" id="el_kXdolWxyNkb"/><path d="M209.63,56.17h95.61a5.16,5.16,0,0,1,5.14,5.14V167.2H204.49V61.31A5.16,5.16,0,0,1,209.63,56.17Z" id="el_GxG0hFLkUv2"/><path d="M309.09,89.84h7.2A5.15,5.15,0,0,1,321.43,95V165.4H304V95A5.16,5.16,0,0,1,309.09,89.84Z" id="el_teLugS5I9Zl"/><path d="M200.9,89.84h7.19A5.15,5.15,0,0,1,213.23,95V165.4H195.76V95A5.15,5.15,0,0,1,200.9,89.84Z" id="el_95edKge0IDo"/><path d="M309.09,91.64h7.2a5.15,5.15,0,0,1,5.14,5.14V167.2H304V96.78A5.16,5.16,0,0,1,309.09,91.64Z" id="el_wnZX5OHyeUU"/><path d="M200.9,91.64h7.19a5.15,5.15,0,0,1,5.14,5.14V167.2H195.76V96.78A5.15,5.15,0,0,1,200.9,91.64Z" id="el_GtMT_kPnvXa"/><path d="M158.7,5.75s9.81,4.93,8.32,11.31-5.34,13.77-6,14.08-5.86-1.44-8.43-4.42S146.31,1.43,158.7,5.75Z" id="el_7yQ5jK5cOux"/><polygon points="165.02 20.35 166.87 25.33 162.96 26 165.02 20.35" id="el_PSNtotJZ4Yr"/><path d="M162.14,44.3l6.53,28,21.23,4.32,3.95-2.67s4.63-.77,5.56-2.26c0,0,.77,2.31-3.45,3.75,0,0,3.09,1.54,10.38,1.59,0,0,4.37,1.08-2.36,4s-7.76.36-17.07-.2-20-1.5-22.71-2.93l-10.39-27.2C153.86,50.73,158.23,43.94,162.14,44.3Z" id="el_99CroKWg-9_"/><path d="M135.1,45.23s4.78-23.08,21-10.85a18.89,18.89,0,0,1,6.79,12l-3.14,5.39s3,7.56,2.78,8.64-6,4.27-6.32,5.55,1.8,19.12-2.73,24c0,0-10.43,3-22.61-4.42,0,0-4.42-3.18,1.49-5.8S131.3,69.49,135.1,45.23Z" id="el_sjYh0c3-hbe"/><path d="M139.47,54.74l16.81,24.1a2.92,2.92,0,0,0,3.8.93c3.86-2,12.39-6.94,25.7-16.76l13.68-4a.9.9,0,0,0-.05-1.74L189,55.2s2.26-1.9,1.75-3.65a32.51,32.51,0,0,1-5.65,3.34l-3.45,6.58L160.8,71.18,148.57,51.65S144.46,51.29,139.47,54.74Z" id="el_rH4X7qREZwu"/><path d="M175.92,169.31c1.28-4.83,1.64-15.83-4.07-40.82,0,0-1.85-4,1.7-3.8s10.64,0,10.64,0,.36.21,0,5.24-3.19,32.49-2.42,35.83c.67,3,3.65,6.84,10,11.21a.67.67,0,0,1-.41,1.23,33.39,33.39,0,0,1-5.66-.46,44,44,0,0,1-7.5-3.24A4.46,4.46,0,0,1,175.92,169.31Z" id="el_9cBL4eBWawx"/><path d="M197.4,107l19.22,37s8.43,1.85,15.22.87a1.28,1.28,0,0,1,1,2.21,13.53,13.53,0,0,1-6.17,3.08,79.56,79.56,0,0,0-8.64,2.11,3.51,3.51,0,0,1-4.47-1.9c-1.18-2.67-3.6-6.94-8.58-12.9-9.36-11.21-17.17-18.3-19.59-25.19Z" id="el_EAcJgrK_n7L"/><path d="M130.89,85.47s12.75,5.81,24.72-1.64l3,5.39,21.69-5.34a9.56,9.56,0,0,1,11.11,5.65l8.27,20s-6.53,5.24-13.62,5l-1.13,12.13s-5.6,3.9-13.83,0l1.13-15.11-14.75.56-17.89.62a9.83,9.83,0,0,1-10.17-10.74Z" id="el_dNcJAov4Wxm"/><path d="M156.43,27.29s-4.06,5-3,10.74S147,33.1,147,33.1,145.85,21,148.16,19.22,156.43,27.29,156.43,27.29Z" id="el_RaG8F7K_r4k"/><path d="M167.59,11.3l-11.36,8.48-2-5.45s-4.88,1.55-4.57,12.75S157,46,148.93,52.47c0,0-1.8-11.77-7.86-12.69,0,0-5.56.56-6.58,9.1,0,0-3.81-3.4-.77-14.14s15.72-29.66,19-31.41S159.26,1.38,167.59,11.3Z" id="el_QPn35WpI0up"/><path d="M191.13,58.14A.17.17,0,0,1,191,58a.17.17,0,0,1,.16-.17l8.74-.26h0a.16.16,0,0,1,.16.16.16.16,0,0,1-.16.17l-8.74.26Z" id="el_KmmCGGHdosw"/><path d="M191.33,60.14a.17.17,0,0,1,0-.33l6.38-1.23a.16.16,0,0,1,.19.13.17.17,0,0,1-.13.2l-6.37,1.23Z" id="el_-IwKLpz_E-m"/><path d="M146.72,92.17a.15.15,0,0,1-.16-.13.16.16,0,0,1,.12-.2l33.21-7.66a.16.16,0,0,1,.2.12.17.17,0,0,1-.13.2l-33.2,7.66Z" id="el_rTALguFTwsm"/><path d="M185.94,114.63a.18.18,0,0,1-.17-.17V102.13A5.36,5.36,0,0,0,177,98l-18.3,15.37a.17.17,0,1,1-.22-.26l18.3-15.37a5.7,5.7,0,0,1,9.37,4.4v12.33A.17.17,0,0,1,185.94,114.63Z" id="el_9FgAttZdnQH"/><path d="M172.27,111.34l-.08,0a.16.16,0,0,1-.07-.22l3.54-7.15a.17.17,0,0,1,.23-.07.16.16,0,0,1,.07.22l-3.55,7.15A.14.14,0,0,1,172.27,111.34Z" id="el_6CYBv1dQIRM"/><path d="M159.67,51.71a.16.16,0,0,1-.15-.1L158.13,48a.17.17,0,0,1,.1-.22.16.16,0,0,1,.21.1l1.39,3.65a.16.16,0,0,1-.1.21Z" id="el_dbDG4p7jRL6"/><path d="M132.74,80.19a.16.16,0,0,1-.13-.06.17.17,0,0,1,0-.24l9-7.19a.16.16,0,0,1,.23,0,.17.17,0,0,1,0,.24l-8.95,7.19A.13.13,0,0,1,132.74,80.19Z" id="el_-RtfuTBo8m2"/><path d="M199.66,79.88a.17.17,0,0,1-.14-.08.17.17,0,0,1,.06-.23,4.22,4.22,0,0,0,1.77-3.15.17.17,0,1,1,.33,0,4.48,4.48,0,0,1-1.93,3.43Z" id="el_F7wqH1OQAvI"/><rect x="152.52" y="23.31" width="2.57" height="2.57" id="el_lf7dIUSIXYt"/><path d="M156.28,79a.21.21,0,0,1-.14-.07L138.56,53.39a.16.16,0,0,1,.05-.23.17.17,0,0,1,.23,0l17.58,25.55a.17.17,0,0,1,0,.23A.14.14,0,0,1,156.28,79Z" id="el_XsPaYYMqwAq"/><path d="M163.94,77.72a.16.16,0,0,1-.14-.08.16.16,0,0,1,0-.23l7.71-4.57a.17.17,0,0,1,.17.29L164,77.7A.11.11,0,0,1,163.94,77.72Z" id="el_ReJVHCfHhkS"/><path d="M161.37,71.2a.18.18,0,0,1-.15-.1.16.16,0,0,1,.08-.22l6.53-3.09a.17.17,0,0,1,.14.31l-6.53,3.08Z" id="el_TKIOkZrRo7a"/><path d="M92.7,181V100.84h0V48.52a5.15,5.15,0,0,1,5.14-5.14h11.1a5.15,5.15,0,0,1,5.14,5.14V95.86a5.08,5.08,0,0,0,4.83,4.72h38.81A15.4,15.4,0,0,1,173.14,116v65Z" id="el_3LdH5Mw6Kut"/><path d="M92.7,183V102.9h0V48.77a5.16,5.16,0,0,1,5.14-5.14h11.1a5.16,5.16,0,0,1,5.14,5.14V97.91a5.08,5.08,0,0,0,4.83,4.73h38.81a15.4,15.4,0,0,1,15.42,15.42v65Z" id="el_3CVpLDv_h_3"/><path d="M255.38,95a.16.16,0,0,1-.16-.14c-3.46-29.8-12-45.28-12.11-45.43a.16.16,0,1,1,.28-.16c.09.15,8.69,15.69,12.15,45.55a.16.16,0,0,1-.14.18Z" id="el_p0TZ0gimG2V"/><path d="M264.27,36.28,287.2,59.05a7.39,7.39,0,0,1,2.16,6c-.83,8.17-3.45,28.37-9.56,37.06h-3.14s5.6-24.37,3.44-38.4L262,46.05Z" id="el_6YaOSoVj6lA"/><path d="M214.21,55.66l-3.29,32.59a3.28,3.28,0,0,0,5.34,2.88c5.3-4.27,10.13-13.06,18.92-26.94l7.66-2.67L245,63.16l1.33-2.62V52l-2.77-.31,4.11-7.91v-1.8l-4.27,4.47-7.6,10.38L217.65,78.74l2.62-25h0A3.46,3.46,0,0,0,214.21,55.66Z" id="el_Mvs5EjEM0La"/><path d="M210.71,73.6l3.5-21A11.69,11.69,0,0,1,219,44.87l14.44-10.18,26-.62A11.63,11.63,0,0,1,268,37.46L284.06,53.6a3.18,3.18,0,0,1,.1,4.42l-4.93,5.3a3.17,3.17,0,0,1-4.73,0l-6.42-7.15,2.26,13.78v29l-30.64-1-7.55-23.08L223.31,60.9,221,73.55a2.12,2.12,0,0,1-1.8,1.69L213,76A2.07,2.07,0,0,1,210.71,73.6Z" id="el_Hysbwpxndwl"/><path d="M248.08,34.89a1.4,1.4,0,0,1-.77.21,1.34,1.34,0,0,1-1.08-.93,3,3,0,0,1,0-1.49c.21-.92.67-1.79.93-2.72a4.49,4.49,0,0,1,.36-1.13,1.94,1.94,0,0,1,1-.82c.57-.26.57-.31.67.25C249.42,29.14,248.75,34.48,248.08,34.89Z" id="el_KgdN1lLZGzo"/><path d="M248,33.56l3.6,7.86a.9.9,0,0,1-1.39,1.08l-2.57-2-5.3,7.35Z" id="el_-RLs1QwXXKm"/><path d="M231.48,36.23l-1.9,10.64a1.19,1.19,0,0,0,2,1.08l3.14-3.08a.37.37,0,0,1,.46-.06l3.75,2.06a.41.41,0,0,0,.52-.62l-6-7V34.79Z" id="el_GRzYEk-V-8x"/><path d="M270.65,97.71a45,45,0,0,0-32.13-1.49,12,12,0,0,0-4.37,4.78s-9-3.09-13.93-.11-4,12.6,1.75,22.52,35.57,44.71,46.21,55.1-7.2-17.79-15.11-30.64-11.16-20.76-10.8-23,10.8,0,10.8,0,6,1,15.31-8.18S276.35,102.9,270.65,97.71Z" id="el_ij7iGc_CBeC"/><path d="M247.93,33.76l-5.19,12a1.59,1.59,0,0,1-2.57.51l-4.89-4.72a6.78,6.78,0,0,1-2-5.45l.31-3.29,14,.41A.43.43,0,0,1,247.93,33.76Z" id="el_2IFch_2Rb1_"/><path d="M292.39,104.9S281,97,262,109.58s-17.32,14.34-8.89,15.32a165.92,165.92,0,0,0,16.65,1s-8.33,37.32-23.59,44.46a55.43,55.43,0,0,1-16,4c-8.68.72,7,7.15,17.58,5.45s24.42-22,37-40.55S299.33,107.16,292.39,104.9Z" id="el_cLVESHlRDot"/><path d="M251.37,13.46s-5.7,20.36-17.89,21.28c0,0-4.73-9.1-1.95-22.05C232.51,7.91,252.71,7.7,251.37,13.46Z" id="el_xNlQaG_Sur8"/><path d="M249.31,16.8,248,33.61,243.1,38.9a3.5,3.5,0,0,1-4.94.21l-4.68-4.37V15.16Z" id="el_mpwu8ntWteK"/><path d="M251.37,13.46s-6.32,10.28-18.5,11.21c0,0-3.76-7.66-1.39-12S252.71,7.7,251.37,13.46Z" id="el_Cgwcfhac3Qj"/><path d="M252.45,14.28A16.22,16.22,0,0,1,248.6,26l-.88-12.54S251.17,11.3,252.45,14.28Z" id="el_EmEikUA1bPq"/><path d="M233.48,31.76a27.56,27.56,0,0,1-2.1-5.45.9.9,0,0,1,1.28-1l.82.41Z" id="el_wfxIdcZJUbZ"/><path d="M249.73,24.51l-1.19,1.13-.46,5.61L250.45,25A.45.45,0,0,0,249.73,24.51Z" id="el_n29Hgi44SGB"/><path d="M268.38,58.34a.17.17,0,0,1-.16-.12A90,90,0,0,0,262.79,43a.16.16,0,0,1,.07-.22.17.17,0,0,1,.22.08,88.47,88.47,0,0,1,5.46,15.3.16.16,0,0,1-.12.2Z" id="el_5m0fJKh9PBb"/><path d="M258,114.94a.17.17,0,0,1-.12-.28c14.65-16,29.88-11.86,30-11.82a.16.16,0,0,1,.11.21.16.16,0,0,1-.2.11c-.15,0-15.19-4.15-29.7,11.72A.14.14,0,0,1,258,114.94Z" id="el_3X4USg75RAr"/><path d="M251.32,112.31a.13.13,0,0,1-.12,0c-14.51-15.87-29.55-11.77-29.7-11.72a.16.16,0,0,1-.2-.12.16.16,0,0,1,.11-.2c.15,0,15.38-4.21,30,11.82a.16.16,0,0,1,0,.23A.15.15,0,0,1,251.32,112.31Z" id="el_wq4jCLmGfj7"/><path d="M240.69,40.53a4,4,0,0,1-1.95-.82.16.16,0,0,1-.05-.23.16.16,0,0,1,.23,0,3.25,3.25,0,0,0,1.94.74,6,6,0,0,0,2.7-1.25.16.16,0,0,1,.2.26,6.48,6.48,0,0,1-2.85,1.32Z" id="el_4-N7HqWbNEA"/><path d="M288.84,103.77s-5.91-4.88-9.51-4.88-7.19,5.91-7.19,6.89,2.62-1.39,4.93-2,6.22,2.26,6.22,2.26S292.34,106.29,288.84,103.77Z" id="el_qHh6MOeUpW1"/><path d="M245.25,134.83a.16.16,0,0,1-.15-.12c-3.9-13.52-11.74-19.75-11.82-19.81a.16.16,0,0,1,.2-.26c.08.06,8,6.36,11.93,20a.15.15,0,0,1-.11.2Z" id="el_X2_4NzjOQi9"/><path d="M267,135.14h-.05a.16.16,0,0,1-.11-.2c3.92-13.62,11.85-19.92,11.93-20a.16.16,0,0,1,.23,0,.17.17,0,0,1,0,.23c-.08.06-7.92,6.3-11.82,19.81A.16.16,0,0,1,267,135.14Z" id="el_ZafASjo1K-_"/><path d="M211,88.25a3.28,3.28,0,0,0,5.35,2.88c5-4,9.81-11.16,17.27-24.21.46-.77,2.16-3.7,2.93-4.06a10.67,10.67,0,0,1,2.21-.93,3.32,3.32,0,0,0,1.8-.72l1.9-2.16c.82-.31,1.23.72,1.23.72.77.62,1.8,1.34,2.21.47h0a3.15,3.15,0,0,0,.87-2.73l-.41-2.93a2.88,2.88,0,0,0-2.51-2.83l-.62,0s.46-.82,1.54-2.36a8.88,8.88,0,0,1,2.36,0c2.63,0,2.63-.72,2.27-1.13l-5.25-.88-8.58,9.46L217.65,78.74Z" id="el_Ij5_yYsqVO1"/><path d="M213.9,83.07a.21.21,0,0,1-.11,0,.17.17,0,0,1,0-.24l3.75-4.16a.16.16,0,0,1,.23,0,.15.15,0,0,1,0,.23L214,83A.14.14,0,0,1,213.9,83.07Z" id="el__9nYP9_ejY8"/><path d="M246.33,56.39a.18.18,0,0,1-.15-.1l-.31-.77a3.79,3.79,0,0,0-2.65-2.22.16.16,0,0,1,.06-.32,4.14,4.14,0,0,1,2.9,2.41l.31.77a.17.17,0,0,1-.1.22Z" id="el_6in2Xm5TSq7"/><path d="M246.18,59.22a.15.15,0,0,1-.15-.11l-.31-.77a3.77,3.77,0,0,0-2.66-2.21.17.17,0,0,1-.13-.19.17.17,0,0,1,.2-.13A4.07,4.07,0,0,1,246,58.22l.31.77a.16.16,0,0,1-.09.22Z" id="el_UiS2XcFMIWJ"/><path d="M284.94,106.2a.17.17,0,0,1-.14-.07,12.63,12.63,0,0,0-5.87-3.84.18.18,0,0,1-.12-.21A.16.16,0,0,1,279,102a12.76,12.76,0,0,1,6.05,4,.17.17,0,0,1,0,.23A.14.14,0,0,1,284.94,106.2Z" id="el_El5uBxW0pig"/><path d="M287.45,106.2a.16.16,0,0,1-.11,0,36.63,36.63,0,0,0-4.45-3.53.15.15,0,0,1,0-.23.16.16,0,0,1,.22,0,35.24,35.24,0,0,1,4.5,3.57.16.16,0,0,1,0,.23A.17.17,0,0,1,287.45,106.2Z" id="el_jFUXJ74JsqQ"/><path d="M282.52,66.72a.18.18,0,0,1-.12,0l-3-3.34a.16.16,0,0,1,0-.24.16.16,0,0,1,.23,0l3,3.34a.16.16,0,0,1,0,.23A.15.15,0,0,1,282.52,66.72Z" id="el_q69Xo3aVoLC"/><path d="M262.47,56.28c-3,2.1-7,1.95-10.64,1.69" id="el_7ULw28OfGee"/><path d="M259.08,53.76c-1.34,0-.67,8.74.16,8.33C260.31,61.83,259.9,53.76,259.08,53.76Z" id="el_OmvCsoSXUdu"/><path d="M244.38,30.42a2.13,2.13,0,0,1-2.15-1.87l0-.3a1.37,1.37,0,0,1,.28-1.06,1.34,1.34,0,0,1,.92-.51l3.49-.41a1.12,1.12,0,0,1,.87.21,1.18,1.18,0,0,1,.48.83l.16,1.13a1.5,1.5,0,0,1-1.29,1.66l-2.48.31Zm2.68-3.67H247l-3.52.41a.85.85,0,0,0-.58.33.86.86,0,0,0-.18.67l.05.31a1.67,1.67,0,0,0,1.84,1.44l2.46-.31a1,1,0,0,0,.87-1.1l-.16-1.14a.71.71,0,0,0-.28-.49A.65.65,0,0,0,247.06,26.75Z" id="el_3NQBTHsTMA_"/><path d="M238.21,30.73l-2.89-.05a1.63,1.63,0,0,1-1.14-.56,1.37,1.37,0,0,1-.34-1V28.06a1.28,1.28,0,0,1,1.29-1.24l4,.05a1.44,1.44,0,0,1,1.44,1.45v.15A2.32,2.32,0,0,1,238.21,30.73Zm-2.86-.57,2.87.06A1.79,1.79,0,0,0,240,28.46v-.14a.91.91,0,0,0-.92-.93l-4-.05a.77.77,0,0,0-.77.72v1.08a.9.9,0,0,0,.21.65A1.15,1.15,0,0,0,235.35,30.16Z" id="el_oAG_N_dxLM9"/><path d="M248,27.54a.26.26,0,0,1-.24-.2,5.19,5.19,0,0,1,.58-1.8.24.24,0,0,1,.32-.12.24.24,0,0,1,.13.32,8.43,8.43,0,0,0-.55,1.51.24.24,0,0,1-.19.29Z" id="el_zkAoZDNMY4b"/><path d="M242.43,28.36a.25.25,0,0,1-.18-.08,1.5,1.5,0,0,0-1.06-.28c-.31,0-.48.06-.56.19a.24.24,0,0,1-.33.08.25.25,0,0,1-.09-.34,1.07,1.07,0,0,1,1-.43,2,2,0,0,1,1.41.44.23.23,0,0,1,0,.34A.25.25,0,0,1,242.43,28.36Z" id="el_hXPM8wBcwSA"/><path d="M244.59,30.17l2.46-.31a1.26,1.26,0,0,0,1.08-1.39L248,27.34a.93.93,0,0,0-1.08-.82l-3.5.41a1.11,1.11,0,0,0-1,1.28l0,.31A1.91,1.91,0,0,0,244.59,30.17Z" id="el_-I0ekgIiNrY"/><path d="M235.64,30.37l2.47.05a2,2,0,0,0,2.11-1.9v-.31A1.21,1.21,0,0,0,239,27.08l-3.85,0a1,1,0,0,0-1.08.93l.26,1.13A1.31,1.31,0,0,0,235.64,30.37Z" id="el_chutuYvurDJ"/><path d="M205.93,108.09H421.3v77.1H205.93Z" id="el_9swQpBinrEo"/><path d="M204.65,108.09H422.59a3.86,3.86,0,0,1,0,7.71H204.65a3.86,3.86,0,1,1,0-7.71Z" id="el_qtv4N4QNTq2"/><path d="M204.65,177.74H422.59a3.86,3.86,0,0,1,0,7.71H204.65a3.89,3.89,0,0,1-3.86-3.86A3.85,3.85,0,0,1,204.65,177.74Z" id="el_iTPUFqguY8-"/><path d="M209.38,96.78h7.19a1,1,0,0,1,1,1v9.25a1,1,0,0,1-1,1h-7.19a1,1,0,0,1-1-1V97.81A1,1,0,0,1,209.38,96.78Z" id="el_cIDbyoSXhPa"/><path d="M216.83,107.06c-2.09,0-3.6-3.53-3.6-5.91,0-2.83,2.34-2.83,3.6-2.83a4.56,4.56,0,0,0,1.24-.27c.85-.25,1.81-.55,2.54,0s.9,1.47.85,3.1C221.4,103.49,218.91,107.06,216.83,107.06Zm2.75-8.29a4.93,4.93,0,0,0-1.22.27,5.55,5.55,0,0,1-1.53.31c-1.81,0-2.57.25-2.57,1.8,0,2,1.33,4.88,2.57,4.88s3.55-3,3.6-4.89c0-1.63-.26-2.11-.44-2.26A.68.68,0,0,0,219.58,98.77Z" id="el_uOAF-bMwrhH"/><path d="M221.71,105H265.4a1.28,1.28,0,0,1,1.29,1.29v.51a1.28,1.28,0,0,1-1.29,1.29H221.71a1.27,1.27,0,0,1-1.28-1.29v-.51A1.27,1.27,0,0,1,221.71,105Z" id="el_2mQo1O2R-ev"/><path d="M222.23,105.52h43.69a1.29,1.29,0,0,1,0,2.57H222.23a1.28,1.28,0,0,1-1.29-1.29A1.31,1.31,0,0,1,222.23,105.52Z" id="el_oNG7kgJYr7J"/><path d="M234.56,76.73h35a5.16,5.16,0,0,1,5.14,5.14v22.62a2.55,2.55,0,0,1-2.57,2.57H231a2.54,2.54,0,0,1-2.57-2.57V82.9A6.18,6.18,0,0,1,234.56,76.73Z" id="el_apRE7uHpRAr"/><path d="M234.56,77.76h36a5.16,5.16,0,0,1,5.14,5.14v22.62a2.54,2.54,0,0,1-2.57,2.57H232a2.54,2.54,0,0,1-2.57-2.57V82.9A5.16,5.16,0,0,1,234.56,77.76Z" id="el_x4BWxvyOvPa"/><path d="M252.55,89.84a3.09,3.09,0,1,1-3.08,3.09A3.1,3.1,0,0,1,252.55,89.84Z" id="el_kZuVf6mIbkg"/><g id="el_5IdhJZD_BTU"><g id="el_9O8KDNqEazR_gErMoQAL0" data-animator-group="true" data-animator-type="0"><path id="el_9O8KDNqEazR" d="M366.92,150.75l-1.29,3.6L364.2,152c-11.47,1.55-13-5.19-13-5.19,8.28-4.06,12.49,3.34,13.26,4.89Z"/></g><g id="el_UTv2CU1YUGt_GkylYqNdz" data-animator-group="true" data-animator-type="0"><path id="el_UTv2CU1YUGt" d="M293.6,118c1.62-.58,9.8-3,12.93,5.69,0,0-5.75,3.81-12.92-5.26l-2.68.71,1.57-3.49Z"/></g><g id="el_D4YWQ4Y2jXr_furcbGADZ" data-animator-group="true" data-animator-type="0"><path id="el_D4YWQ4Y2jXr" d="M333.2,149.31l-1.49-1c-6.48,4-9.15.36-9.15.36,3.91-4.57,8.38-1.33,9.2-.61l1.24-1.19Z"/></g><g id="el_RMGzebJYz1h_mb3pyWxNO" data-animator-group="true" data-animator-type="0"><path id="el_RMGzebJYz1h" d="M265.87,164.05l1.23,1.19c.82-.72,5.29-4,9.2.61,0,0-2.67,3.6-9.15-.36l-1.49,1Z"/></g><g id="el_mF5kx4c9lWI_jH9HMAgX_" data-animator-group="true" data-animator-type="0"><path id="el_mF5kx4c9lWI" d="M375.61,142.12l-1.49-1c-6.48,4-9.15.36-9.15.36,3.9-4.58,8.37-1.34,9.2-.62l1.23-1.18Z"/></g><g id="el_oysShe3CLh2_nSQsBqlwR" data-animator-group="true" data-animator-type="0"><path id="el_oysShe3CLh2" d="M348.22,153.91l.57,2.41-1.63-.76c-5.77,4.88-9,1.81-9,1.81,3.11-5.13,8-2.62,9-2.1Z"/></g><g id="el_0rDwWcGFAeN_e9L48_K3C" data-animator-group="true" data-animator-type="0"><g id="el_0rDwWcGFAeN_wG-Yl2WZm" data-animator-group="true" data-animator-type="1"><path id="el_0rDwWcGFAeN" d="M327.28,173.39l.57,2.41-1.63-.76c-5.76,4.88-9,1.82-9,1.82,3.11-5.14,8-2.63,9-2.11Z"/></g></g><g id="el_1XdqTpWZEEG_eWtFdhaC2" data-animator-group="true" data-animator-type="0"><path id="el_1XdqTpWZEEG" d="M209.68,121.29c1-.52,5.89-3,9,2.09,0,0-3.17,3.07-8.94-1.8l-1.63.76.57-2.4Z"/></g><g id="el_Ds674bv0C5Y_Rtvp6gHBL" data-animator-group="true" data-animator-type="0"><g id="el_Ds674bv0C5Y_rzQo1nDYJ" data-animator-group="true" data-animator-type="1"><path id="el_Ds674bv0C5Y" d="M228.45,135.33l-1.34,2.11,0-4.94,1.39,2.32c6.78-6.74,9.1.87,9.1.87C233.38,144.17,229.22,136.87,228.45,135.33Z"/></g></g><g id="el_VpJJXKxdxWS_0NFCmr4l-" data-animator-group="true" data-animator-type="0"><g id="el_VpJJXKxdxWS_70lWf60x1" data-animator-group="true" data-animator-type="1"><path id="el_VpJJXKxdxWS" d="M282.75,122.47l.13,2.49-2.82-4,2.48,1.08c1.63-9.41,7.92-4.55,7.92-4.55C291.89,126.82,284.27,123.28,282.75,122.47Z"/></g></g><path id="el_RoAqjohqKKH" d="M333,169.31l-2.21,1.16,2.52-4.25,0,2.7c9.25-2.42,7.43,5.32,7.43,5.32C332.85,179.44,332.91,171,333,169.31Z"/><g id="el_3Amc0o6NINf_REhV3eju_" data-animator-group="true" data-animator-type="0"><path id="el_3Amc0o6NINf" d="M404.89,171.54s2.35-7.59,9.1-.82l1.4-2.3,0,4.93-1.33-2.11C413.31,172.77,409.11,180.05,404.89,171.54Z"/></g><g id="el_Tpg1sv5FgGX_o54B8JqZI" data-animator-group="true" data-animator-type="0"><g id="el_Tpg1sv5FgGX_D5u0W7XkZ" data-animator-group="true" data-animator-type="1"><path id="el_Tpg1sv5FgGX" d="M210,158.66l-1.33,2.12,0-4.94,1.4,2.31c6.74-6.77,9.1.82,9.1.82C215,167.48,210.82,160.2,210,158.66Z"/></g></g><g id="el_wpqWlPiYTaX_AvOxuTSSv" data-animator-group="true" data-animator-type="0"><path id="el_wpqWlPiYTaX" d="M249.31,143.9l-.51,2.47-1.59-4.68,2.1,1.7c4.12-8.64,8.9-2.21,8.9-2.21C256.92,150.58,250.55,145.08,249.31,143.9Z"/></g><g id="el_IOc4tykvFzd_AMg0ogxyK" data-animator-group="true" data-animator-type="0"><path id="el_IOc4tykvFzd" d="M405.87,142.47s2.53-7.59,9.14-.68l1.47-2.27-.05,4.94-1.26-2.18C414.37,143.79,410,151,405.87,142.47Z"/></g></g><g id="el_zSftwU8AEtN"><path id="el_J-dm34xlnCK" d="M293.34,108.09C294.21,102,298,99.4,298,99.4c6.07-4.11,6.48-9.82,6.48-9.82H293.16s.41,5.71,6.48,9.82c0,0,3.78,2.58,4.65,8.69Z"/><path id="el_uogI_XGWhd9" d="M295.73,94.47s3.7,1,5.91,0a6.83,6.83,0,0,1-2.83,3.34S297.17,97.24,295.73,94.47Z"/><path id="el_WtEMXuCrZWV" d="M293.42,107.83s6.58-1.44,10.53,0a10.42,10.42,0,0,0-4.47-4.37,2.75,2.75,0,0,0-.56-.25,3.43,3.43,0,0,0-.62.25A12.49,12.49,0,0,0,293.42,107.83Z"/></g><script>(function(){var a=document.querySelector('#el_6nXQHakYvaJ'),b=a.querySelectorAll('style'),c=function(d){b.forEach(function(f){var g=f.textContent;g&amp;&amp;(f.textContent=g.replace(/transform-box:[^;\r\n]*/gi,'transform-box: '+d))})};c('initial'),window.requestAnimationFrame(function(){return c('fill-box')})})();</script></svg>